<svg width="38" height="26" viewBox="0 0 38 26" fill="none" xmlns="http://www.w3.org/2000/svg">
<path d="M36.6151 11.4163L22.8576 0.878297C21.5411 -0.127812 19.6439 0.809348 19.6439 2.47081V5.71899L2.0231 11.0828C1.16083 11.3473 0.603149 12.1004 0.603149 12.9973C0.603149 13.8998 1.16083 14.6472 2.02318 14.9117L19.644 20.2813V23.5295C19.644 25.1909 21.5411 26.128 22.8577 25.122L36.6151 14.5898C37.1096 14.2103 37.397 13.6297 37.397 13.003C37.3969 12.3763 37.1095 11.7957 36.6151 11.4163ZM19.644 19.0798L2.35657 13.8137C1.91393 13.6757 1.75295 13.302 1.75295 12.9973C1.75295 12.6927 1.91393 12.319 2.35657 12.1867L19.6439 6.92059V19.0798H19.644Z" fill="white"/>
</svg>
