<svg width="292" height="199" viewBox="0 0 292 199" fill="none" xmlns="http://www.w3.org/2000/svg">
<path d="M285.067 87.0139L176.455 3.92577C166.061 -4.00702 151.083 3.38213 151.083 16.4821V42.0928L11.9719 84.3844C5.16446 86.4698 0.761719 92.4077 0.761719 99.4795C0.761719 106.595 5.16446 112.488 11.9725 114.574L151.084 156.911V182.522C151.084 195.621 166.061 203.01 176.456 195.078L285.067 112.036C288.971 109.043 291.239 104.466 291.239 99.5244C291.239 94.5831 288.97 90.0053 285.067 87.0139ZM151.084 147.438L14.6045 105.916C11.11 104.828 9.8391 101.882 9.8391 99.4795C9.8391 97.0778 11.11 94.1313 14.6045 93.0882L151.083 51.5669L151.084 147.438Z" fill="#E7D393"/>
</svg>
